<svg enable-background="new 0 0 175.5 48.6" viewBox="0 0 175.5 48.6" xmlns="http://www.w3.org/2000/svg"><g fill="#d2d6dc"><path d="m172.6 35.6c.5 0 1.1.1 1.1-.6 0-.5-.4-.5-.8-.5h-.9v1.1zm-.6 1.6h-.5v-3.2h1.4c.8 0 1.1.3 1.1.9s-.4.9-1 .9l1 1.4h-.4l-.9-1.1h-.7zm3-1.3c0-1.3-1.1-2.4-2.5-2.4-1.3 0-2.4 1.1-2.4 2.5 0 1.3 1.1 2.4 2.4 2.4s2.4-1 2.4-2.3c.1-.1.1-.1.1-.2m-5.3 0c0-1.6 1.3-2.9 2.9-2.9s2.9 1.3 2.9 2.9-1.3 2.9-2.9 2.9-2.9-1.3-2.9-2.9z"/><path d="m120.6 24.3h-8.6v-2.4c-.1-1.4.4-2.7 1.3-3.8.8-.8 1.9-1.2 3-1.2 2.8 0 4.3 1.8 4.3 4.9zm2.6-5.7c-2-1.7-4.5-2.5-7.1-2.4-2.7.1-5.3 1.2-7.1 3.3-2.1 2.4-3.2 5.4-3.2 8.6-.1 4.1 2 8 5.6 10.1 1.4.8 3 1.3 4.6 1.4 4.9.4 9.2-3.1 9.9-8v-.2h-1.7v.2c-.4 3.6-3.5 6.4-7.1 6.4-3.3 0-5.2-2.3-5.2-6.2 0 0 0-4.4 0-5.2h14.4v-.2c0-3.5-1.1-6.1-3.1-7.8"/><path d="m77.4 34.5h-2.2v.1c-.1 1.6-1.4 2.8-3 2.8-1.7 0-2.5-1.2-2.5-3.5v-16.1h5.3v-.2l.5-1.2v-.2h-5.9v-6.8h-.2c-1.4.1-4.2.3-5.7.3h.5v6.5h-3.8v1.6h3.8v14.1c0 5.2 2.3 7.8 6.7 7.8 5.1 0 6.2-3.8 6.4-5z"/><path d="m14.8 10.3 5.2 15.1h-10.1zm42 26.9v-14.1c.2-3.9-2.7-7.2-6.6-7.5-.3 0-.5 0-.8 0-2.8-.1-5.4 1.3-7 3.6l-.1-2.8v-.2h-9.1v1.6h3.8v19.4h-6.3l-12.8-37.1v-.1h-1.6v.1l-12.6 37.1h-3.7v1.6h10.7v-1.6h-4.8l3.5-10.8h11.3l3.6 10.8h-4.9v1.6h26.8v-1.6h-3.8v-10.8c0-6.5 3.4-8.8 5.7-8.8 2.2 0 3.4 1.5 3.4 4.3v15.4h-3.2v1.6h12.3v-1.6h-3.8z"/><path d="m101.3 37.2v-14.4c0-3.4-2-7.3-7.8-7.3-2.9-.1-5.8 1.1-7.8 3.3v-18.3h-9.1v1.1h3.2v35.6h-3.2v1.6h12.9v-1.6h-3.8v-11c0-3.8 1.3-5.9 2.3-7 1-1 2.3-1.6 3.7-1.6 3 0 3.6 2.5 3.6 4.7v15h-3.2v1.6h12.9v-1.6c0-.1-3.7-.1-3.7-.1z"/><path d="m168.1 37.2h-3.6v-15.2c0-4-2.7-6.4-7.1-6.4-2.9-.1-5.7 1.2-7.4 3.5-1.1-2.2-3.4-3.4-6.5-3.4-2.8-.1-5.4 1-7.3 3l-.1-2.2v-.2h-9.1v1.6h4.3v19.4h-3.8v1.6h12.3v-1.6h-3.2v-10.9c.1-3.1.3-5.2 1.4-6.7 1-1.3 2.5-2.1 4.1-2.1 1.1 0 2.1.6 2.6 1.6.4 1.3.6 2.6.5 3.9v14.1h-3.8v1.6h12.3v-1.6h-3.2v-10.8c.1-3.1.3-5.2 1.4-6.7 1-1.3 2.5-2.1 4.1-2.1 1.1 0 2.1.6 2.6 1.6.4 1.3.6 2.6.5 3.9v14.1h-3.2v1.6h12.3v-1.6z"/><path d="m0 45.3v3.3h166.9l1-3.3z"/></g></svg>