<svg enable-background="new 0 0 576 100.8" viewBox="0 0 576 100.8" xmlns="http://www.w3.org/2000/svg"><path d="m53.6 69.4c-1-.9-2.2-.6-4.7.7-2.8 1.4-7.8 3.3-11.9 3.3-2.8 0-4.8.1-7.8-1-13.2-4.7-19.3-14.9-19.3-30.4 0-14 9.9-26.8 19.4-30.5 2.8-1.1 5-1.3 7.9-1.3 5.7 0 11.9 2.9 13.3 3.7s3.2.9 4 .6c.8-.4 1-.2 1.9-1.8h1c.2 2.1.2 17.1 0 19h-1.4c-1.7-5.5-3.4-10.2-7-14.3-4.6-5.2-9.4-5.9-14.2-4.8-3.6.8-6.2 3.9-7.7 8.2-1.3 3.8-2.8 13.1-2.8 20.8 0 7.1.3 14.9 1.7 19.9 1.4 4.9 3 7.3 7.5 9.1 3.9 1.6 9.5.9 14.5-4.2 5.6-5.7 7.7-14.9 7.7-14.9h1.4c.2 2.3-.2 18.2-.5 20.5h-1.4c-.3-1-.7-1.8-1.6-2.6zm30.6-.9c-1.1 1.3-2.7 2.1-4.6 2.1-4 0-5.7-3.5-5.7-7.5 0-1.5 0-4.6.2-5.8.4-3.3 2.4-5.1 6.2-5.5 2.2-.2 4.5-.3 5.9-.2v-2c-7.6.2-12.6 1.1-15.6 2-5.2 1.6-8.2 5-8.9 8.7-.8 4 .4 7.5 2.6 9.2 3.4 2.8 6.9 3.7 11.3 3.7 5.4 0 9.1-2.6 11.1-4.3 0 0 1.8 2.1 2.4 2.6 1.4 1.1 3.9 2 5.9 2 2.1 0 4.6-.9 5.8-2 1.6-1.6 3.1-3.8 3.6-6.1l-1.4-.4c-.4 1.2-1.1 3-2.2 3.7-.9.6-1.8.3-2.5-1.1-.4-.7-.4-2-.4-3.2v-20.9c0-2-1.2-4.2-1.7-5-1-1.4-3-3.5-8.2-5-4.7-1.3-10-1.2-13.5-.4-3.3.8-9.5 3.4-9.5 9.2 0 3.3 2.9 5.5 5.7 5.5s5.7-2.2 5.7-5.4-2.8-4.6-4-5.1-.1-1.4.1-1.5c1.2-.7 2.8-1.7 6.5-1.7 4.7 0 7.2 1.1 7.2 7.2v8 2 11.9c0 1.6-.7 3.8-2 5.3zm35.8-20.3c0-6.4 2.8-10.6 5.4-11.6.3-.1.5.2.5.4-.1.6-.9 1.1-.9 3.4 0 3.2 2.8 6.1 6.3 6.1 3.3 0 6.2-3.1 6.2-6.3 0-3.9-2.4-7.1-7.2-7.1-5.8 0-8.5 3.9-9.4 5-.3.4-.8.6-.8-.2v-5.9c-.8.8-3 2.2-5.1 2.2h-12v1.5h5.5v34.9h-5.8v1.5h23.6v-1.5h-6.3zm36.9-6.3c1.4-2.8 4.3-5.6 7.8-5.6 3.2 0 4.8 2.5 4.8 4.8v29.7h-5v1.5h21.5v-1.5h-4.6v-26.4c0-3-1.1-5.8-3.1-7.7-1.9-1.8-5.7-3.5-9-3.5-2.9 0-5.8 1-8.4 2.6-1.9 1.2-3.6 2.7-4.8 4.2-.4.6-.9.4-.9-.3v-7.6c-.8.8-3 2.2-5.1 2.2h-11.1v1.5h4.5v34.9h-4.8v1.5h21.6v-1.5h-5v-22.5c0-2.1.8-4.6 1.6-6.3zm42.5 7.7c.1-1.8.1-5 .2-7.9 0-1.6.2-4 .9-5.1.8-1.3 2.3-2.1 4.2-2.1 1.8 0 2.9.7 3.7 2.2.6 1.1.9 3.1.9 4.8 0 3.1.1 6.4.1 8.1h-10l-.3 2h23.7c.1-1 .1-3.2-.7-5.8-.9-2.7-3.4-6.7-5.7-8.7-2.9-2.6-7.1-4.2-11.7-4.2-4 0-7.8 1.5-11.6 4.6-4.5 3.7-7.1 10-7.1 16.2 0 5.3 1.7 10.4 5.7 14.5 2.9 3 8.8 5.1 14 5.1 5.3 0 10.1-2 13.4-6.1 2.1-2.6 3.4-5.6 4.2-9l-1.7-.5c-1.3 3.9-2.8 6.6-4.8 8.8-2.1 2.4-6 4.2-9.1 4.2-3 0-5.1-1.2-6.5-3.4-1.3-2.1-1.6-4.3-1.8-6.7s-.2-5.3-.2-9.1zm98.8-.3c.1-1.8.1-5 .2-7.9 0-1.6.2-4 .9-5.1.8-1.3 2.3-2.1 4.2-2.1 1.8 0 2.9.7 3.7 2.2.6 1.1.9 3.1.9 4.8 0 3.1.1 6.4.1 8.1h-10l-.2 2h23.7c.1-1 .1-3.2-.7-5.8-.9-2.7-3.4-6.7-5.7-8.7-2.9-2.6-7.1-4.2-11.7-4.2-4 0-7.8 1.5-11.6 4.6-4.5 3.7-7.1 10-7.1 16.2 0 5.3 1.7 10.4 5.7 14.5 2.9 3 8.8 5.1 14 5.1 5.3 0 10.1-2 13.4-6.1 2.1-2.6 3.4-5.6 4.2-9l-1.7-.5c-1.3 3.9-2.8 6.6-4.8 8.8-2.1 2.4-6 4.2-9.1 4.2-3 0-5.1-1.2-6.5-3.4-1.3-2.1-1.6-4.3-1.8-6.7s-.2-5.3-.2-9.1zm-68.5 25.4c-1.4.7-3.1 1.9-4.2 2.8-1.4 1.3-2.8 3.6-2.8 5.8 0 2.7 1.3 5.5 3.9 7.5 3.5 2.7 8.1 3.9 13.3 3.9 4 0 8.4-1.2 11.3-3.2 3.2-2.2 5.3-4.8 6.7-8.4.7-1.8 1.4-5.3 1.4-7.7 0-2.2-.6-4.8-1.6-6.5-.9-1.7-2.3-2.9-4.1-3.7-1.7-.7-3.8-1.1-6.2-1.1h-14.7c-1.9 0-3.5-.5-4.2-1.4-.7-1-.6-2.1.2-3 .9-1.1 3.1-2.1 4.9-2.3 1-.1 1.9-.1 2.6 0 1.2.2 2.2.7 5 .7s6.7-1 9.1-2.4c3.8-2.2 5.9-6 5.9-9.9 0-3-1.6-6.5-3.6-8.6.6-.8 2.4-2.7 3.4-3.1.5-.2.8.2.5.6-.7.9-1.2 2.6-.4 4.1s2.1 2.6 4.2 2.6c2.2 0 4-1.8 4-4 0-1.7-.9-3.1-2.4-4.1-.9-.6-2-1-3.2-1-1.4 0-2.7.6-3.7 1.1s-2.3 1.8-3.4 2.9c-2.7-1.9-6-3.3-10-3.3l.2 1.2c2.3 0 3.3 1.1 3.9 2.5s.7 2.7.7 5.1v7.5c0 2.1-.2 3.4-.9 4.9-.7 1.6-2.2 2.6-4.3 2.6s-3.6-1.1-4.3-2.9c-.6-1.6-.5-4.5-.5-4.5v-7.6s-.1-3.2.8-5.2c.5-1 1.8-2.5 4.5-2.5l-.2-1.2c-4.3 0-7.6 1.3-10.4 3.4-2.6 1.9-4.9 5.5-4.9 9.2s1.8 7.8 5.8 10.1c.4.2.6.7.1.8-5 1.5-7.5 5.1-7.5 9.6 0 3.4 2.1 6.5 5.1 8.7l2.1.7h17.1c2.1 0 3.4.2 4.7.9 1.8 1 2.4 2.5 2.4 4.3 0 2.6-1.6 5.8-3.5 7.8-2.6 2.6-6.9 4.7-11.7 4.7-4.5 0-8-1.4-10.5-3.9-1.7-1.7-2.3-3.9-2.3-6.5 0-3.2 1.5-5.6 3.7-7.3zm51.1-42.6c-.8.8-3 2.2-5.1 2.2h-11.3v1.5h4.8v34.9h-5v1.5h21.1v-1.5h-4.5zm-6.2-6.7c3.8 0 6.8-3 6.8-6.8s-3-6.8-6.8-6.8-6.8 3-6.8 6.8 3 6.8 6.8 6.8zm128.1 45h-6.1v-56.8h6.2v-1.8h-20.2l-14.4 41.3-15-41.3h-21.6v1.8h6.5v50c0 3.5-1 4.4-1.7 5.1-.7.9-1.7 1.5-3.9 1.5h-1.2v1.9h16.6v-1.8h-1.1c-2 0-3.6-.3-4.8-1.6-.9-1-1.7-3.8-1.7-5.8v-47.4l20.6 56.7h2.8l19.4-56.3v54.5h-6.6v1.8h26.2zm12.5-19.1h23.7c.1-1 .1-3.2-.7-5.8-.9-2.7-3.4-6.7-5.7-8.7-2.9-2.6-7.1-4.2-11.7-4.2-4 0-7.8 1.5-11.6 4.6-4.5 3.7-7.1 10-7.1 16.2 0 5.3 1.7 10.4 5.7 14.5 2.9 3 8.8 5.1 14 5.1 5.3 0 10.1-2 13.4-6.1 2.1-2.6 3.4-5.6 4.2-9l-1.7-.5c-1.3 3.9-2.8 6.6-4.8 8.8-2.1 2.4-6 4.2-9.1 4.2-3 0-5.1-1.2-6.5-3.4-1.3-2.1-1.6-4.3-1.8-6.7-.3-2.3-.3-5.2-.3-9l.3-2c0-1.8.1-5 .1-7.9 0-1.6.2-4 .9-5.1.8-1.3 2.3-2.1 4.2-2.1 1.8 0 2.9.7 3.7 2.2.6 1.1.9 3.1.9 4.8 0 3.1.1 6.4.1 8.1h-9.9zm24.1-37.9h4.3v57.2h-5.1v1.6h21.7v-1.6h-5v-61.1c-.8.8-2.9 2.2-5.1 2.2h-10.8zm23.8 0h4.3v57.2h-5.1v1.6h21.7v-1.6h-5v-61.1c-.8.8-2.9 2.2-5.1 2.2h-10.8zm41 21.1c3.9 0 7.1 1.5 7.1 11.8v13c0 10.3-3.2 12.1-7.1 12.1s-7.1-1.8-7.1-12.1v-13c0-10.3 3.2-11.8 7.1-11.8l-.1-1.5c-10.8 0-20.2 9.3-20.2 19.7-.1 11.3 8.3 20.3 20.2 20.3 11.6 0 20.1-9.2 20.1-20.5 0-11-9.1-19.5-20.1-19.5zm38.5 7.4c1.4-2.8 4.3-5.6 7.8-5.6 3.2 0 4.8 2.5 4.8 4.8v29.7h-5v1.5h21.5v-1.5h-4.6v-26.4c0-3-1.1-5.8-3.1-7.7-1.8-1.8-5.7-3.5-9-3.5-2.9 0-5.8 1-8.4 2.6-1.9 1.2-3.6 2.7-4.8 4.2-.5.6-.9.4-.9-.3v-7.6c-.8.8-3 2.2-5.1 2.2h-11.2v1.5h4.5v34.9h-4.8v1.5h21.6v-1.5h-5v-22.5c.1-2.1.9-4.6 1.7-6.3z" fill="#d2d6dc"/><path d="m0 0h576v100.8h-576z" fill="none"/></svg>