<svg enable-background="new 0 0 475.1 217.7" viewBox="0 0 475.1 217.7" xmlns="http://www.w3.org/2000/svg" xmlns:xlink="http://www.w3.org/1999/xlink"><clipPath id="a"><path d="m-.2-.6h475.3v218.3h-475.3z"/></clipPath><clipPath id="b"><path d="m-.2-.6h475.3v218.3h-475.3z"/></clipPath><g fill="#d2d6dc"><path d="m39.5 114.1c-1.2.6-1.6 2.1-1 3.2.6 1.2 2.1 1.6 3.2 1 1.2-.6 1.6-2.1 1-3.2-.4-.8-1.2-1.2-2.1-1.2-.4-.1-.8 0-1.1.2" transform="matrix(4.4821038 0 0 4.4821038 -130.32565 -394.49242)"/><g clip-path="url(#a)"><path d="m34.4 26.8h3.7l8.4 15.4v-15.4h2.7v19.1h-3.5l-8.6-15.7h-.1v15.7h-2.7v-19.1z" transform="translate(53.0339 134.2168)"/><path d="m58.9 26.8h2.9l8.1 19.1h-3l-1.9-4.8h-9.4l-1.9 4.8h-2.9zm1.3 2.6-3.8 9.5h7.6z" transform="translate(58.3564 134.2168)"/><path d="m74.9 29.7h-5.9v-2.4h14.6v2.4h-5.9v16.7h-2.7v-16.7z" transform="translate(61.8346 133.7877)"/><path d="m152.2 161.1h2.7v19.1h-2.7z"/><path d="m103.6 26.5c5.8 0 9.2 4.2 9.2 9.9 0 5.8-3.4 9.9-9.2 9.9s-9.2-4.1-9.2-9.9c0-5.7 3.4-9.9 9.2-9.9m0 17.3c4.4 0 6.3-3.7 6.3-7.5 0-3.9-2.1-7.5-6.3-7.5s-6.3 3.6-6.3 7.5c0 3.8 1.9 7.5 6.3 7.5" transform="translate(68.0743 134.2746)"/><path d="m117.3 26.8h3.7l8.4 15.4h.1v-15.4h2.7v19.1h-3.5l-8.6-15.7h-.1v15.7h-2.7z" transform="translate(71.0451 134.2168)"/><path d="m141.6 26.8h2.9l8.1 19.1h-3l-1.9-4.8h-9.3l-1.9 4.8h-2.9zm1.3 2.6-3.8 9.5h7.6z" transform="translate(76.3187 134.2168)"/><path d="m156.1 26.8h2.7v16.7h8v2.4h-10.7z" transform="translate(79.4748 134.2168)"/><path d="m180.2 26.8h2.7v16.7h8v2.4h-10.7z" transform="translate(84.7046 134.2168)"/><path d="m199.7 26.8h2.9l8.1 19.1h-3l-1.9-4.8h-9.3l-1.9 4.8h-2.9zm1.3 2.6-3.8 9.5h7.6z" transform="translate(88.9435 134.2168)"/><path d="m213.9 26.8h5.2c4 0 6.7 1.3 6.7 4.8 0 2.6-1.5 3.9-3.9 4.5v.1c2.6.2 4.4 1.9 4.4 4.6 0 4.1-3.4 5.1-7.3 5.1h-5.1zm2.7 8.2h1.5c2.7 0 4.9-.2 4.9-3.1 0-2.3-1.9-2.8-3.5-2.8h-2.9zm0 8.7h2.1c2.5 0 4.7-.5 4.7-3.1 0-2.9-2.6-3.4-4.9-3.4h-1.8v6.5z" transform="translate(92.0267 134.2168)"/><path d="m237.4 26.5c5.8 0 9.2 4.2 9.2 9.9 0 5.8-3.4 9.9-9.2 9.9s-9.2-4.1-9.2-9.9c0-5.7 3.4-9.9 9.2-9.9m0 17.3c4.4 0 6.3-3.7 6.3-7.5 0-3.9-2.1-7.5-6.3-7.5s-6.3 3.6-6.3 7.5c0 3.8 1.9 7.5 6.3 7.5" transform="translate(97.1437 134.2746)"/><path d="m251.1 26.8h4.7c3.8 0 7.4.6 7.4 5.2 0 2.3-1.7 4-3.9 4.3v.1c.8.3 1.3.7 1.9 1.9l3.6 7.6h-3.1l-2.9-6.6c-.9-1.9-1.7-1.9-3.2-1.9h-1.6v8.5h-2.7v-19.1m2.5 8.3h2.3c2.6 0 4.1-1.1 4.1-3 0-1.7-1.3-2.8-3.8-2.8h-2.6z" transform="translate(100.1152 134.2168)"/><path d="m273.2 26.8h2.9l8.1 19.1h-3l-1.9-4.8h-9.3l-1.9 4.8h-2.9zm1.4 2.6-3.8 9.5h7.6z" transform="translate(104.9201 134.2168)"/><path d="m289.2 29.7h-5.9v-2.4h14.6v2.4h-5.9v16.7h-2.7v-16.7z" transform="translate(108.3984 133.7877)"/><path d="m307.9 26.5c5.8 0 9.2 4.2 9.2 9.9 0 5.8-3.4 9.9-9.2 9.9s-9.2-4.1-9.2-9.9c0-5.7 3.4-9.9 9.2-9.9m0 17.3c4.4 0 6.3-3.7 6.3-7.5 0-3.9-2.1-7.5-6.3-7.5s-6.3 3.6-6.3 7.5c0 3.8 1.9 7.5 6.3 7.5" transform="translate(112.4624 134.2746)"/><path d="m321.6 26.8h4.7c3.8 0 7.4.6 7.4 5.2 0 2.3-1.7 4-3.9 4.3v.1c.9.3 1.3.7 1.9 1.9l3.6 7.6h-3.1l-2.9-6.6c-.8-1.9-1.7-1.9-3.2-1.9h-1.6v8.5h-2.7v-19.1m2.5 8.3h2.3c2.6 0 4.1-1.1 4.1-3 0-1.7-1.3-2.8-3.8-2.8h-2.6z" transform="translate(115.4332 134.2168)"/><path d="m342.7 39.9-7.5-11.1h3.2l5.7 8.6 5.5-8.6h3.2l-7.4 11.1v8h-2.7z" transform="translate(120.0249 132.2362)"/></g><path d="m59.4 88.5c-4.8 2-12.8 11.5-17.4 23.4-.1.1 0 .3.1.3.2 0 .2 0 .3-.2 6.9-14.9 15.5-22.4 19.1-22.2 2.3.2 3.7 2.6 3.7 6.4 0 .1.1.2.2.2.1 0 .2-.1.2-.2.4-5-.9-7.4-3-8-.3-.1-.6-.1-1-.1-.7-.1-1.4.1-2.2.4" transform="matrix(4.4821038 0 0 4.4821038 -130.32565 -394.49242)"/><path d="m63.5 98.8c-5 .2-11.4 1.5-17.8 3.8-6.2 2.2-11.5 5-16.4 8.4-.2.1-.2.3-.2.4.1.1.2.1.4 0 4.7-2.9 8.1-4.9 15.4-7.5 6.1-2.2 12.2-3.5 17.2-3.7 4.4-.2 7.6.6 8.5 2 1.3 2 .3 4.2-3.2 7.3-.1.1-.1.2-.1.3s.1.1.3 0c5.7-3.7 5.1-7 4.8-7.9-.6-2-3.5-3.1-8-3.1-.3 0-.6 0-.9 0" transform="matrix(4.4821038 0 0 4.4821038 -130.32565 -394.49242)"/><g clip-path="url(#b)"><path d="m152.6 76.3h8.1v1.8h-6v4.2h5.5v1.8h-5.5v4.7h6v1.8h-8.1z" transform="translate(78.7088 126.7288)"/><path d="m169.8 78.8c-1.1-.4-1.6-.6-2.7-.6-1.2 0-2.5.4-2.5 1.9 0 2.8 6.2 2.1 6.2 6.9 0 3.1-2.4 4.3-5.3 4.3-1 0-2-.3-2.9-.6l.2-1.9c.7.3 1.9.7 3 .7 1.2 0 2.8-.7 2.8-2.4 0-3.2-6.2-2.3-6.2-6.8 0-2.6 2-3.9 4.6-3.9 1 0 2.1.2 3.1.5z" transform="translate(82.4421 126.3423)"/><path d="m177.7 78.4h-4.5v-1.8h11v1.8h-4.5v12.6h-2.1v-12.6z" transform="translate(84.1677 126.4051)"/><path d="m271.5 215.1h2.3v2.3h-2.3z"/><path d="m195.9 79.1-2.2 1.9-1.1-1.4 3.5-2.9h1.8v14.4h-2.1v-12z" transform="translate(88.1305 126.3058)"/><path d="m204.8 90.8c.7.4 1.6.6 2.6.6 2.7 0 4-2.5 4-5.2-1 .9-2 1.3-3.2 1.3-2.8 0-4.3-2-4.3-4.5 0-3 2-4.8 4.6-4.8 4 0 4.8 3.6 4.8 6.9 0 3.9-1.3 8-5.8 8-1 0-2.4-.2-3-.5zm3.7-5c1.7 0 2.7-1.3 2.7-2.9 0-1.4-.8-3-2.5-3s-2.6 1.5-2.6 3c0 1.4.7 2.9 2.4 2.9" transform="translate(90.0615 124.5256)"/><path d="m221 89.4h-6.7v-1.7l5.8-9.4h2.9v9.4h1.8v1.7h-1.8v3.3h-2zm0-9.4-4.5 7.7h4.5z" transform="translate(93.5782 124.7454)"/><path d="m229.6 83.4h1.1c1.5 0 3.6-.5 3.6-2.4 0-1.6-1.3-2.3-2.8-2.3-1.3 0-2.3.4-3.2.8l-.1-1.8c.9-.3 2.4-.6 3.6-.6 2.5 0 4.7 1.2 4.7 3.9 0 1.8-1.4 3-3.1 3.3 1.9.4 3.2 1.5 3.2 3.6 0 3.3-2.8 4.1-5.7 4.1-1.2 0-2.4-.3-3.3-.6l.1-1.9c.7.4 1.9.8 3.2.8 1.6 0 3.5-.6 3.5-2.4 0-2.1-1.7-2.7-3.6-2.7h-1.3v-1.8z" transform="translate(95.4328 125.6468)"/><path d="m87.7 210.9h129.3v-1.9h-129.3z"/><path d="m346.1 210.9h127v-1.9h-127z"/><path d="m34.6-56.7h11.4v47.7h22v8.9h-33.4z" transform="translate(53.0708 146.8765)"/><path d="m124.7-29.1c-3.3-1.1-5.8-1.8-9.8-1.8-2.9 0-6.4 1.1-6.4 4.6 0 6.7 19 2.4 19 17.6 0 9.8-8.7 13.7-17.6 13.7-4.2 0-8.4-.7-12.4-1.8l.6-8.9c3.4 1.7 7 2.8 10.7 2.8 2.8 0 7.2-1.1 7.2-5.1 0-8.2-19-2.6-19-17.7 0-9 7.9-13 16.4-13 5.1 0 8.5.8 11.9 1.5z" transform="translate(72.6505 142.683)"/><path d="m154.8-57h12.9l22.3 56.8h-12.6l-4.9-13h-23l-5 13h-11.8zm6.3 11.4h-.2l-8.2 23.4h16.6z" transform="translate(79.193 146.9087)"/><path d="m272.6 90h10.9v56.7h-10.9z"/><path d="m203.1-36.8c4.2-2 9.9-3.2 14.6-3.2 12.8 0 18.1 5.3 18.1 17.7v5.4c0 4.2.1 7.4.2 10.5.1 3.2.2 6.1.5 9.4h-9.6c-.4-2.2-.4-5-.5-6.3h-.2c-2.5 4.6-8 7.2-12.9 7.2-7.4 0-14.7-4.5-14.7-12.5 0-6.3 3-9.9 7.2-12 4.2-2 9.5-2.4 14.1-2.4h6c0-6.7-3-9-9.4-9-4.6 0-9.3 1.8-12.9 4.6zm12.8 32.7c3.3 0 5.9-1.5 7.6-3.7 1.8-2.4 2.3-5.4 2.3-8.6h-4.7c-4.9 0-12.1.8-12.1 7.3 0 3.5 3 5 6.9 5" transform="translate(89.696 143.8588)"/><path d="m235.4-39.4h10.2v5.8h.2c3.4-5.1 8.4-6.8 12.4-6.8 5.9 0 10 2.2 12.4 7.4 2.5-5 8-7.4 13.1-7.4 10.3 0 13.3 7.1 13.3 16.4v26.5h-11v-25c0-3.9 0-9.4-6.3-9.4-7.2 0-8.1 8.6-8.1 14.1v20.3h-10.9v-25c0-3.9 0-9.4-6.3-9.4-7.2 0-8.1 8.6-8.1 14.1v20.3h-10.9z" transform="translate(96.7095 144.2507)"/><path d="m326.8-14.7c0 12.1-9.9 22-23 22-13 0-23-9.8-23-22 0-12.1 10-22 23-22 13.1 0 23 9.8 23 22m-11.6.2c0-7.2-4.6-13-11.2-13s-11.2 5.8-11.2 13 4.7 13 11.2 13c6.5-.1 11.2-5.9 11.2-13" transform="translate(116.5536 140.5147)"/><path d="m100.3-14.7c0 12.1-9.9 22-23 22-13 0-23-9.8-23-22 0-12.1 10-22 23-22 13.1 0 23 9.8 23 22m-11.7.2c0-7.2-4.6-13-11.2-13s-11.2 5.8-11.2 13 4.7 13 11.2 13c6.5-.1 11.2-5.9 11.2-13" transform="translate(67.3556 140.5147)"/><path d="m350.6-29.1c-3.3-1.1-5.8-1.8-9.8-1.8-2.9 0-6.4 1.1-6.4 4.6 0 6.7 19 2.4 19 17.6 0 9.8-8.7 13.7-17.6 13.7-4.1 0-8.4-.7-12.4-1.8l.6-8.9c3.4 1.7 7 2.8 10.7 2.8 2.8 0 7.2-1.1 7.2-5.1 0-8.2-19-2.6-19-17.7 0-9 7.9-13 16.4-13 5.1 0 8.5.8 11.9 1.5z" transform="translate(121.7415 142.683)"/></g></g></svg>